<?xml version="1.0" encoding="UTF-8"?><svg id="Logo" xmlns="http://www.w3.org/2000/svg" xmlns:xlink="http://www.w3.org/1999/xlink" viewBox="0 0 251 251"><defs><linearGradient id="linear-gradient" x1="-3320.83306" y1="1229.4339" x2="-3320.83306" y2="1239.88289" gradientTransform="translate(-3205.48472 1349.53006) rotate(-180)" gradientUnits="userSpaceOnUse"><stop offset="0" stop-color="#010101"/><stop offset="1" stop-color="#010101" stop-opacity="0"/></linearGradient><linearGradient id="linear-gradient-2" x1="-1928.99081" y1="-3375.85699" x2="-1928.99081" y2="-3365.40801" gradientTransform="translate(2107.3392 3513.6134)" xlink:href="#linear-gradient"/><linearGradient id="linear-gradient-3" x1="-4055.95543" y1="-1046.44496" x2="-4055.95543" y2="-1035.95453" gradientTransform="translate(524.00571 4504.91976) rotate(71.40018) scale(1.06598 1.00001)" gradientUnits="userSpaceOnUse"><stop offset="0" stop-color="#010101" stop-opacity="0"/><stop offset="1" stop-color="#010101"/></linearGradient><linearGradient id="linear-gradient-4" x1="-7598.95962" y1="-5651.84284" x2="-7598.95962" y2="-5641.34518" gradientTransform="translate(2072.39856 -11837.71255) rotate(-108.50516) scale(1.41939 1.00001)" xlink:href="#linear-gradient-3"/><linearGradient id="linear-gradient-5" x1="-4565.80729" y1="-2131.21604" x2="-4565.80729" y2="-2120.76705" gradientTransform="translate(-1961.69778 4748.73364) rotate(90)" xlink:href="#linear-gradient"/><linearGradient id="New_Gradient_Swatch_18" x1="-435.5406" y1="-1658.20752" x2="-435.5406" y2="-1647.75854" gradientTransform="translate(516.26189 1822.964)" gradientUnits="userSpaceOnUse"><stop offset="0" stop-color="#010101"/><stop offset="1" stop-color="#010101" stop-opacity="0"/></linearGradient><linearGradient id="linear-gradient-6" x1="-426.5801" y1="-1684.95742" x2="-426.5801" y2="-1674.50844" gradientTransform="translate(516.26189 1822.964)" xlink:href="#linear-gradient-3"/><linearGradient id="New_Gradient_Swatch_18-2" x1="-1425.25654" y1="2045.54955" x2="-1425.25654" y2="2056.00001" gradientTransform="translate(-948.45113 -3170.34996) rotate(-71.47987) scale(1.93554 .99998)" xlink:href="#New_Gradient_Swatch_18"/><linearGradient id="New_Gradient_Swatch_18-3" x1="-366.2866" x2="-366.2866" xlink:href="#New_Gradient_Swatch_18"/><linearGradient id="New_Gradient_Swatch_18-4" x1="-375.3301" y1="-1685.20752" x2="-375.3301" y2="-1674.75854" xlink:href="#New_Gradient_Swatch_18"/><linearGradient id="linear-gradient-7" x1="-3320.77765" y1="1239.1132" x2="-3320.77765" y2="1249.44747" gradientTransform="translate(3082.39304 4597.86757) rotate(71.49974) scale(1.56554 1.11732)" xlink:href="#linear-gradient"/></defs><g id="AS"><polygon id="A" points="82.63439 191.92635 91.67829 164.92635 139.01839 164.92635 142.03309 173.92635 148.06259 191.92635 148.06259 191.92635 167.0455 191.92635 167.0455 191.92635 161.01599 173.92635 148.95739 137.92635 129.97419 137.92635 132.98909 146.92635 97.70789 146.92635 106.6505 120.22865 115.3485 94.26185 123.94489 119.92635 124.3485 119.92635 142.92779 119.92635 130.86919 83.92635 124.83989 65.92635 124.34819 65.92635 120.53479 65.92635 110.16219 65.92635 105.85679 65.92635 78.72469 146.92635 63.6515 146.92635 63.6515 164.92635 72.69539 164.92635 63.6515 191.92635 82.63439 191.92635" style="fill:#bbb2a0;"/><g id="S"><g id="S_bottom"><polygon points="142.03611 173.92623 148.06611 191.92623 106.34611 191.92623 106.34611 173.92623 142.03611 173.92623" style="fill:#447894;"/></g><g id="S_top"><polygon points="187.34611 65.92623 187.34611 83.92623 133.09611 83.92623 130.86611 83.92623 124.83611 65.92623 133.09611 65.92623 187.34611 65.92623" style="fill:#447894;"/></g><g id="S_middle"><polygon points="187.34611 146.67623 187.34611 173.92623 169.34611 191.92623 167.04611 191.92623 161.01611 173.92623 169.34611 173.92623 169.34611 146.67623 169.34611 137.92623 162.09611 137.92623 148.95611 137.92623 129.97611 137.92623 127.40611 137.92623 124.34611 137.92623 106.64611 120.22623 115.34611 94.26623 123.94611 119.92623 124.34611 119.92623 142.92611 119.92623 162.09611 119.92623 169.34611 119.92623 187.34611 137.92623 187.34611 146.67623" style="fill:#447894;"/></g></g><g id="Shadows"><polygon points="106.75179 119.92635 123.94489 119.92635 121.01409 111.17635 109.68269 111.17635 106.75179 119.92635" style="fill:url(#linear-gradient); opacity:.3;"/><polygon points="169.34839 137.92635 169.34839 146.67635 187.34839 146.67635 187.34839 137.92635 187.34839 137.92635 169.34839 137.92635 169.34839 137.92635" style="fill:url(#linear-gradient-2); opacity:.3;"/><polygon points="140.13739 83.92635 134.0805 65.92635 124.84839 65.92635 130.86919 83.92635 140.13739 83.92635" style="fill:url(#linear-gradient-3); opacity:.3;"/><polygon points="132.81009 173.92635 138.82179 192.01435 148.0625 191.92645 142.03729 173.92635 132.81009 173.92635" style="fill:url(#linear-gradient-4); opacity:.3;"/><rect x="160.59839" y="173.92635" width="8.75" height="18" style="fill:url(#linear-gradient-5); opacity:.15;"/><polygon points="88.74729 173.67635 69.76439 173.67635 72.69529 164.92635 91.67819 164.92635 88.74729 173.67635" style="fill:url(#New_Gradient_Swatch_18); opacity:.15;"/><polygon points="97.70779 146.92645 78.72489 146.92645 81.65579 138.17645 100.63869 138.17645 97.70779 146.92645" style="fill:url(#linear-gradient-6); opacity:.15;"/><polygon points="129.45379 79.70065 113.56279 127.14075 106.65059 120.22845 124.83979 65.92635 129.45379 79.70065" style="fill:url(#New_Gradient_Swatch_18-2); opacity:.15;"/><polygon points="160.93229 173.67635 141.94929 173.67635 139.01829 164.92635 158.00139 164.92635 160.93229 173.67635" style="fill:url(#New_Gradient_Swatch_18-3); opacity:.15;"/><polygon points="151.88879 146.67635 132.90579 146.67635 129.97479 137.92635 148.95779 137.92635 151.88879 146.67635" style="fill:url(#New_Gradient_Swatch_18-4); opacity:.15;"/><polyline points="110.24892 109.46681 113.329 118.67191 123.94489 119.92635 115.89755 95.88496 115.3485 94.26185" style="fill:url(#linear-gradient-7); opacity:.3;"/></g></g><g id="Rings"><circle id="Inner_Ring" cx="129.56391" cy="128.97035" r="106" style="fill:none; stroke:#ddc179; stroke-miterlimit:10; stroke-width:2px;"/><circle id="Middle_Ring" cx="129.56391" cy="128.97035" r="110" style="fill:none; stroke:#ddc179; stroke-miterlimit:10; stroke-width:4px;"/><circle id="Outer_Ring" cx="129.56391" cy="128.97035" r="114" style="fill:none; stroke:#ddc179; stroke-miterlimit:10; stroke-width:2px;"/></g></svg>